# xmcd CD database file
#
# Track frame offsets:
#	150
#	5235
#	28270
#	45908
#	56947
#	72654
#	94129
#	115752
#
# Disc length: 1853 seconds
#
# Revision: 2
# Processed by: cddbd v1.5.2PL0 Copyright (c) Steve Scherf et al.
# Submitted via: CDex 1.70beta2
#
DISCID=70073b08
DTITLE=SIBERIAN NEWSPAPER - ASIATIC SPY
DYEAR=2006
DGENRE=New Age
TTITLE0=INTRODUCTION
TTITLE1=柵から逃げ出し亡命する軍馬のはなし
TTITLE2=WHALERIDER
TTITLE3=MA FIANCEE AUX GANTS VERT
TTITLE4=SLOVENIAN MORNING
TTITLE5=HEBREW CUPID
TTITLE6=ボクの村は戦場だった
TTITLE7=KATHOMANDU NOIR
EXTD=YEAR: 2006
EXTT0=
EXTT1=
EXTT2=
EXTT3=
EXTT4=
EXTT5=
EXTT6=
EXTT7=
PLAYORDER=
